.


[color=green]Movies : Animation : HD1080p :Arabic[/color]

 


[img]http://img708.imageshack.us/img708/5552/folderh.png[/img]





[img]http://img219.imageshack.us/img219/462/imdbt.png[/img]
[color=red]IMDB:[/color] 
http://www.imdb.com/title/tt0448694/
[color=green]Genre:[/color]Animation | Adventure | Comedy
[color='ff0000']Source:[/color]Blu-ray Disc R1 
[color=red]Language:[/color]Arabic
File size  : 4.19 GiB
Duration : 01:30:14
Overall bit rate :6641 Kbps
[color=green]Encoder:[/color]alrmothe

[img]http://i.imgur.com/fXeWi.png[/img]
[img]http://img251.imageshack.us/img251/2539/general3y.png[/img]
[color=red]Video Information[/color]
Format :Matroska
Format : AVC
Format profile : High@L5.0
Video Bit rate : 6000 Kbps
Frame Rate: 23.976 fps
Bit depth : 8 bits
Scan type : Progressive
Bits/(Pixel*Frame): 0.160
Stream size : 3.70 GiB (88%)
[color=green]Resolution:1920x816[/color]


[color=navy]Audio Information:[/color]
Format : AC-3
Bit rate mode : Constant
Bit rate : 640 Kbps
Channel(s) : 6 channels
Channel positions:Front: L C R, Side:L R,LFE
Sampling rate : 48.0 KHz
Bit depth : 16 bits
Compression mode : Lossy
Stream size : 403 MiB (9%)


[color=red]SUB:[/color]Arabic softsub. you can(on/off)

[color=green]╪º┘ä╪¬╪▒╪¼┘à╪⌐ ╪╣╪▒╪¿┘è╪⌐ ┘è┘à┘â┘å┘â ╪Ñ╪╕┘ç╪º╪▒┘ç╪º ╪ú┘ê ╪Ñ╪«┘ü╪º╪ª┘ç╪º[/color]



[color=red]Screenshots[/color]
 
http://img254.imageshack.us/img254/9332/37855590.png
 
http://img404.imageshack.us/img404/9873/80457935.png
 
http://img840.imageshack.us/img840/9038/99261839.png
 
http://img507.imageshack.us/img507/9153/65596195.png
 
http://img821.imageshack.us/img821/7615/50549510.png
 
http://img822.imageshack.us/img822/7963/43272951.png












Better quality used kmplayer 3.3.0.33 
http://kmplayer.en.softonic.com/







Trailer






.